<?xml version="1.0" encoding="UTF-8" standalone="no"?>
<!DOCTYPE svg PUBLIC "-//W3C//DTD SVG 1.1//EN"
 "http://www.w3.org/Graphics/SVG/1.1/DTD/svg11.dtd">
<!-- Generated by graphviz version 2.40.1 (20161225.0304)
 -->
<!-- Title: G Pages: 1 -->
<svg width="592pt" height="506pt"
 viewBox="0.00 0.00 592.16 506.00" xmlns="http://www.w3.org/2000/svg" xmlns:xlink="http://www.w3.org/1999/xlink">
<g id="graph0" class="graph" transform="scale(1 1) rotate(0) translate(4 502)">
<title>G</title>
<polygon fill="#ffffff" stroke="transparent" points="-4,4 -4,-502 588.1615,-502 588.1615,4 -4,4"/>
<!-- A0 -->
<g id="node1" class="node">
<title>A0</title>
<ellipse fill="none" stroke="#000000" cx="385.8995" cy="-487" rx="11" ry="11"/>
</g>
<!-- A1 -->
<g id="node2" class="node">
<title>A1</title>
<path fill="none" stroke="#000000" d="M400.8995,-439C400.8995,-439 370.8995,-439 370.8995,-439 364.8995,-439 358.8995,-433 358.8995,-427 358.8995,-427 358.8995,-415 358.8995,-415 358.8995,-409 364.8995,-403 370.8995,-403 370.8995,-403 400.8995,-403 400.8995,-403 406.8995,-403 412.8995,-409 412.8995,-415 412.8995,-415 412.8995,-427 412.8995,-427 412.8995,-433 406.8995,-439 400.8995,-439"/>
<text text-anchor="middle" x="385.8995" y="-418" font-family="Helvetica,sans-Serif" font-size="10.00" fill="#000000">Login</text>
</g>
<!-- A0&#45;&gt;A1 -->
<g id="edge1" class="edge">
<title>A0&#45;&gt;A1</title>
<path fill="none" stroke="#000000" d="M385.8995,-475.804C385.8995,-468.5358 385.8995,-458.7135 385.8995,-449.3916"/>
<polygon fill="#000000" stroke="#000000" points="385.8995,-439.2423 390.3996,-449.2423 385.8995,-444.2423 385.8996,-449.2423 385.8996,-449.2423 385.8996,-449.2423 385.8995,-444.2423 381.3996,-449.2424 385.8995,-439.2423 385.8995,-439.2423"/>
</g>
<!-- A2 -->
<g id="node3" class="node">
<title>A2</title>
<polygon fill="none" stroke="#000000" points="385.8995,-366 367.8995,-348 385.8995,-330 403.8995,-348 385.8995,-366"/>
</g>
<!-- A1&#45;&gt;A2 -->
<g id="edge2" class="edge">
<title>A1&#45;&gt;A2</title>
<path fill="none" stroke="#000000" d="M385.8995,-402.9551C385.8995,-394.8828 385.8995,-385.1764 385.8995,-376.1817"/>
<polygon fill="#000000" stroke="#000000" points="385.8995,-366.0904 390.3996,-376.0903 385.8995,-371.0904 385.8996,-376.0904 385.8996,-376.0904 385.8996,-376.0904 385.8995,-371.0904 381.3996,-376.0904 385.8995,-366.0904 385.8995,-366.0904"/>
</g>
<!-- A3 -->
<g id="node4" class="node">
<title>A3</title>
<polygon fill="#d3d3d3" stroke="#000000" stroke-width="4" points="252.8995,-277.5 252.8995,-281.5 288.8995,-281.5 288.8995,-277.5 252.8995,-277.5"/>
<text text-anchor="middle" x="270.5385" y="-279.2" font-family="Helvetica,sans-Serif" font-size="1.00" fill="#000000"> </text>
</g>
<!-- A2&#45;&gt;A3 -->
<g id="edge3" class="edge">
<title>A2&#45;&gt;A3:n</title>
<path fill="none" stroke="#000000" d="M369.4228,-346.1326C340.1085,-341.8773 281.1121,-328.7598 272.0728,-291.5018"/>
<polygon fill="#000000" stroke="#000000" points="270.8995,-281.5 276.534,-290.9076 271.4821,-286.4659 272.0647,-291.4319 272.0647,-291.4319 272.0647,-291.4319 271.4821,-286.4659 267.5953,-291.9562 270.8995,-281.5 270.8995,-281.5"/>
<text text-anchor="middle" x="320.6915" y="-303" font-family="Helvetica,sans-Serif" font-size="10.00" fill="#000000">[is authenticated]</text>
</g>
<!-- A4 -->
<g id="node5" class="node">
<title>A4</title>
<ellipse fill="none" stroke="#000000" cx="448.8995" cy="-15" rx="11" ry="11"/>
<ellipse fill="none" stroke="#000000" cx="448.8995" cy="-15" rx="15" ry="15"/>
</g>
<!-- A2&#45;&gt;A4 -->
<g id="edge4" class="edge">
<title>A2&#45;&gt;A4</title>
<path fill="none" stroke="#000000" d="M402.0288,-346.0297C433.9024,-341.1413 501.8995,-325.3407 501.8995,-279.5 501.8995,-279.5 501.8995,-279.5 501.8995,-96 501.8995,-70.5268 483.3185,-46.8217 468.1602,-31.7214"/>
<polygon fill="#000000" stroke="#000000" points="460.6619,-24.6455 471.0234,-28.236 464.2984,-28.0772 467.9349,-31.5088 467.9349,-31.5088 467.9349,-31.5088 464.2984,-28.0772 464.8464,-34.7816 460.6619,-24.6455 460.6619,-24.6455"/>
<text text-anchor="middle" x="543.0305" y="-177" font-family="Helvetica,sans-Serif" font-size="10.00" fill="#000000">[not authenticated]</text>
</g>
<!-- A5 -->
<g id="node6" class="node">
<title>A5</title>
<path fill="none" stroke="#000000" d="M73.6987,-240C73.6987,-240 12.1003,-240 12.1003,-240 6.1003,-240 .1003,-234 .1003,-228 .1003,-228 .1003,-216 .1003,-216 .1003,-210 6.1003,-204 12.1003,-204 12.1003,-204 73.6987,-204 73.6987,-204 79.6987,-204 85.6987,-210 85.6987,-216 85.6987,-216 85.6987,-228 85.6987,-228 85.6987,-234 79.6987,-240 73.6987,-240"/>
<text text-anchor="middle" x="42.8995" y="-219" font-family="Helvetica,sans-Serif" font-size="10.00" fill="#000000">Manage blog</text>
</g>
<!-- A3&#45;&gt;A5 -->
<g id="edge5" class="edge">
<title>A3&#45;&gt;A5</title>
<path fill="none" stroke="#000000" d="M259.6705,-277.4354C232.9393,-272.4268 163.3014,-258.8292 95.8428,-240.1056"/>
<polygon fill="#000000" stroke="#000000" points="85.9111,-237.3063 96.7569,-235.6879 90.7236,-238.6627 95.5361,-240.0192 95.5361,-240.0192 95.5361,-240.0192 90.7236,-238.6627 94.3153,-244.3504 85.9111,-237.3063 85.9111,-237.3063"/>
</g>
<!-- A6 -->
<g id="node7" class="node">
<title>A6</title>
<path fill="none" stroke="#000000" d="M195.4734,-240C195.4734,-240 116.3256,-240 116.3256,-240 110.3256,-240 104.3256,-234 104.3256,-228 104.3256,-228 104.3256,-216 104.3256,-216 104.3256,-210 110.3256,-204 116.3256,-204 116.3256,-204 195.4734,-204 195.4734,-204 201.4734,-204 207.4734,-210 207.4734,-216 207.4734,-216 207.4734,-228 207.4734,-228 207.4734,-234 201.4734,-240 195.4734,-240"/>
<text text-anchor="middle" x="155.8995" y="-219" font-family="Helvetica,sans-Serif" font-size="10.00" fill="#000000">Interact with blog</text>
</g>
<!-- A3&#45;&gt;A6 -->
<g id="edge6" class="edge">
<title>A3&#45;&gt;A6</title>
<path fill="none" stroke="#000000" d="M266.8066,-277.4535C256.2122,-272.1564 226.9141,-257.5073 201.0909,-244.5957"/>
<polygon fill="#000000" stroke="#000000" points="192.1382,-240.1194 203.095,-240.5666 196.6104,-242.3555 201.0825,-244.5916 201.0825,-244.5916 201.0825,-244.5916 196.6104,-242.3555 199.07,-248.6165 192.1382,-240.1194 192.1382,-240.1194"/>
</g>
<!-- A7 -->
<g id="node8" class="node">
<title>A7</title>
<path fill="none" stroke="#000000" d="M304.1358,-240C304.1358,-240 237.6632,-240 237.6632,-240 231.6632,-240 225.6632,-234 225.6632,-228 225.6632,-228 225.6632,-216 225.6632,-216 225.6632,-210 231.6632,-204 237.6632,-204 237.6632,-204 304.1358,-204 304.1358,-204 310.1358,-204 316.1358,-210 316.1358,-216 316.1358,-216 316.1358,-228 316.1358,-228 316.1358,-234 310.1358,-240 304.1358,-240"/>
<text text-anchor="middle" x="270.8995" y="-219" font-family="Helvetica,sans-Serif" font-size="10.00" fill="#000000">Update profile</text>
</g>
<!-- A3&#45;&gt;A7 -->
<g id="edge7" class="edge">
<title>A3&#45;&gt;A7</title>
<path fill="none" stroke="#000000" d="M270.8995,-277.0293C270.8995,-272.2727 270.8995,-261.3488 270.8995,-250.4769"/>
<polygon fill="#000000" stroke="#000000" points="270.8995,-240.2724 275.3996,-250.2723 270.8995,-245.2724 270.8996,-250.2724 270.8996,-250.2724 270.8996,-250.2724 270.8995,-245.2724 266.3996,-250.2724 270.8995,-240.2724 270.8995,-240.2724"/>
</g>
<!-- A8 -->
<g id="node9" class="node">
<title>A8</title>
<path fill="none" stroke="#000000" d="M462.1487,-240C462.1487,-240 345.6503,-240 345.6503,-240 339.6503,-240 333.6503,-234 333.6503,-228 333.6503,-228 333.6503,-216 333.6503,-216 333.6503,-210 339.6503,-204 345.6503,-204 345.6503,-204 462.1487,-204 462.1487,-204 468.1487,-204 474.1487,-210 474.1487,-216 474.1487,-216 474.1487,-228 474.1487,-228 474.1487,-234 468.1487,-240 462.1487,-240"/>
<text text-anchor="middle" x="403.8995" y="-219" font-family="Helvetica,sans-Serif" font-size="10.00" fill="#000000">Report violating accounts</text>
</g>
<!-- A3&#45;&gt;A8 -->
<g id="edge8" class="edge">
<title>A3&#45;&gt;A8</title>
<path fill="none" stroke="#000000" d="M275.633,-277.4535C288.0462,-272.087 322.6611,-257.1219 352.8063,-244.0892"/>
<polygon fill="#000000" stroke="#000000" points="361.9886,-240.1194 354.5955,-248.2183 357.3992,-242.1036 352.8097,-244.0878 352.8097,-244.0878 352.8097,-244.0878 357.3992,-242.1036 351.0239,-239.9572 361.9886,-240.1194 361.9886,-240.1194"/>
</g>
<!-- A9 -->
<g id="node10" class="node">
<title>A9</title>
<polygon fill="#d3d3d3" stroke="#000000" stroke-width="4" points="248.8995,-151.5 248.8995,-155.5 284.8995,-155.5 284.8995,-151.5 248.8995,-151.5"/>
<text text-anchor="middle" x="253.0385" y="-153.2" font-family="Helvetica,sans-Serif" font-size="1.00" fill="#000000"> </text>
<polyline fill="none" stroke="#000000" stroke-width="4" points="257.1774,-151.5 257.1774,-155.5 "/>
<text text-anchor="middle" x="261.8164" y="-153.2" font-family="Helvetica,sans-Serif" font-size="1.00" fill="#000000"> </text>
<polyline fill="none" stroke="#000000" stroke-width="4" points="266.4553,-151.5 266.4553,-155.5 "/>
<text text-anchor="middle" x="271.0943" y="-153.2" font-family="Helvetica,sans-Serif" font-size="1.00" fill="#000000"> </text>
<polyline fill="none" stroke="#000000" stroke-width="4" points="275.7332,-151.5 275.7332,-155.5 "/>
<text text-anchor="middle" x="279.8721" y="-153.2" font-family="Helvetica,sans-Serif" font-size="1.00" fill="#000000"> </text>
</g>
<!-- A5&#45;&gt;A9 -->
<g id="edge9" class="edge">
<title>A5&#45;&gt;A9:n</title>
<path fill="none" stroke="#000000" d="M85.7077,-207.0473C88.8142,-206.0036 91.9025,-204.9783 94.8995,-204 110.0383,-199.058 217.739,-180.0246 246.0799,-163.0802"/>
<polygon fill="#000000" stroke="#000000" points="252.8995,-155.5 249.5566,-165.944 249.5554,-159.2171 246.2112,-162.9342 246.2112,-162.9342 246.2112,-162.9342 249.5554,-159.2171 242.8658,-159.9245 252.8995,-155.5 252.8995,-155.5"/>
</g>
<!-- A6&#45;&gt;A9 -->
<g id="edge10" class="edge">
<title>A6&#45;&gt;A9:n</title>
<path fill="none" stroke="#000000" d="M199.0138,-203.9336C222.6287,-192.9044 248.9582,-178.3918 258.3424,-164.9934"/>
<polygon fill="#000000" stroke="#000000" points="261.8995,-155.5 262.6046,-166.4432 260.1451,-160.1821 258.3907,-164.8642 258.3907,-164.8642 258.3907,-164.8642 260.1451,-160.1821 254.1768,-163.2853 261.8995,-155.5 261.8995,-155.5"/>
</g>
<!-- A7&#45;&gt;A9 -->
<g id="edge11" class="edge">
<title>A7&#45;&gt;A9:n</title>
<path fill="none" stroke="#000000" d="M270.8995,-203.9363C270.8995,-193.2783 270.8995,-179.2594 270.8995,-165.7081"/>
<polygon fill="#000000" stroke="#000000" points="270.8995,-155.5 275.3996,-165.5 270.8995,-160.5 270.8996,-165.5 270.8996,-165.5 270.8996,-165.5 270.8995,-160.5 266.3996,-165.5 270.8995,-155.5 270.8995,-155.5"/>
</g>
<!-- A8&#45;&gt;A9 -->
<g id="edge12" class="edge">
<title>A8&#45;&gt;A9:n</title>
<path fill="none" stroke="#000000" d="M350.5927,-203.9449C323.286,-193.3337 293.6841,-179.273 283.5434,-165.2014"/>
<polygon fill="#000000" stroke="#000000" points="279.8995,-155.5 287.6284,-163.2791 281.6577,-160.1807 283.4158,-164.8614 283.4158,-164.8614 283.4158,-164.8614 281.6577,-160.1807 279.2032,-166.4438 279.8995,-155.5 279.8995,-155.5"/>
</g>
<!-- A10 -->
<g id="node11" class="node">
<title>A10</title>
<polygon fill="none" stroke="#000000" points="396.8995,-114 378.8995,-96 396.8995,-78 414.8995,-96 396.8995,-114"/>
</g>
<!-- A9&#45;&gt;A10 -->
<g id="edge13" class="edge">
<title>A9&#45;&gt;A10</title>
<path fill="none" stroke="#000000" d="M271.5263,-151.4535C287.8517,-144.2327 343.4656,-119.6342 374.8615,-105.7476"/>
<polygon fill="#000000" stroke="#000000" points="384.1235,-101.6509 376.7985,-109.8114 379.5508,-103.6735 374.9782,-105.696 374.9782,-105.696 374.9782,-105.696 379.5508,-103.6735 373.1578,-101.5806 384.1235,-101.6509 384.1235,-101.6509"/>
</g>
<!-- A10&#45;&gt;A4 -->
<g id="edge14" class="edge">
<title>A10&#45;&gt;A4</title>
<path fill="none" stroke="#000000" d="M404.1299,-84.7373C412.1548,-72.237 425.2878,-51.7798 435.2595,-36.2469"/>
<polygon fill="#000000" stroke="#000000" points="440.703,-27.7677 439.0874,-38.6139 438.0018,-31.9753 435.3006,-36.1828 435.3006,-36.1828 435.3006,-36.1828 438.0018,-31.9753 431.5138,-33.7518 440.703,-27.7677 440.703,-27.7677"/>
<text text-anchor="middle" x="449.9645" y="-51" font-family="Helvetica,sans-Serif" font-size="10.00" fill="#000000">[is Logout]</text>
</g>
</g>
</svg>
