<?xml version="1.0" encoding="UTF-8" standalone="no"?>
<!DOCTYPE svg PUBLIC "-//W3C//DTD SVG 1.1//EN"
 "http://www.w3.org/Graphics/SVG/1.1/DTD/svg11.dtd">
<!-- Generated by graphviz version 2.40.1 (20161225.0304)
 -->
<!-- Title: G Pages: 1 -->
<svg width="378pt" height="80pt"
 viewBox="0.00 0.00 378.00 80.00" xmlns="http://www.w3.org/2000/svg" xmlns:xlink="http://www.w3.org/1999/xlink">
<g id="graph0" class="graph" transform="scale(1 1) rotate(0) translate(4 76)">
<title>G</title>
<polygon fill="#ffffff" stroke="transparent" points="-4,4 -4,-76 374,-76 374,4 -4,4"/>
<!-- A0 -->
<g id="node1" class="node">
<title>A0</title>
<polygon fill="none" stroke="#000000" points="0,-40 0,-72 54,-72 54,-40 0,-40"/>
<text text-anchor="start" x="9.7735" y="-53" font-family="Helvetica,sans-Serif" font-size="10.00" fill="#000000">Blogger</text>
<polygon fill="none" stroke="#000000" points="0,-20 0,-40 54,-40 54,-20 0,-20"/>
<polygon fill="none" stroke="#000000" points="0,0 0,-20 54,-20 54,0 0,0"/>
</g>
<!-- A1 -->
<g id="node2" class="node">
<title>A1</title>
<polygon fill="none" stroke="#000000" points="73,-40 73,-72 144,-72 144,-40 73,-40"/>
<text text-anchor="start" x="82.94" y="-53" font-family="Helvetica,sans-Serif" font-size="10.00" fill="#000000">Blog Admin</text>
<polygon fill="none" stroke="#000000" points="73,-20 73,-40 144,-40 144,-20 73,-20"/>
<polygon fill="none" stroke="#000000" points="73,0 73,-20 144,-20 144,0 73,0"/>
</g>
<!-- A2 -->
<g id="node3" class="node">
<title>A2</title>
<polygon fill="none" stroke="#000000" points="169,-40 169,-72 209,-72 209,-40 169,-40"/>
<text text-anchor="start" x="178.997" y="-53" font-family="Helvetica,sans-Serif" font-size="10.00" fill="#000000">Blog</text>
<polygon fill="none" stroke="#000000" points="169,-20 169,-40 209,-40 209,-20 169,-20"/>
<polygon fill="none" stroke="#000000" points="169,0 169,-20 209,-20 209,0 169,0"/>
</g>
<!-- A3 -->
<g id="node4" class="node">
<title>A3</title>
<polygon fill="none" stroke="#000000" points="235,-40 235,-72 298,-72 298,-40 235,-40"/>
<text text-anchor="start" x="244.8335" y="-53" font-family="Helvetica,sans-Serif" font-size="10.00" fill="#000000">Comment</text>
<polygon fill="none" stroke="#000000" points="235,-20 235,-40 298,-40 298,-20 235,-20"/>
<polygon fill="none" stroke="#000000" points="235,0 235,-20 298,-20 298,0 235,0"/>
</g>
<!-- A4 -->
<g id="node5" class="node">
<title>A4</title>
<polygon fill="none" stroke="#000000" points="320,-40 320,-72 367,-72 367,-40 320,-40"/>
<text text-anchor="start" x="329.6075" y="-53" font-family="Helvetica,sans-Serif" font-size="10.00" fill="#000000">Image</text>
<polygon fill="none" stroke="#000000" points="320,-20 320,-40 367,-40 367,-20 320,-20"/>
<polygon fill="none" stroke="#000000" points="320,0 320,-20 367,-20 367,0 320,0"/>
</g>
</g>
</svg>
