<?xml version="1.0" encoding="UTF-8" standalone="no"?>
<!DOCTYPE svg PUBLIC "-//W3C//DTD SVG 1.1//EN"
 "http://www.w3.org/Graphics/SVG/1.1/DTD/svg11.dtd">
<!-- Generated by graphviz version 2.40.1 (20161225.0304)
 -->
<!-- Title: G Pages: 1 -->
<svg width="559pt" height="404pt"
 viewBox="0.00 0.00 558.54 403.63" xmlns="http://www.w3.org/2000/svg" xmlns:xlink="http://www.w3.org/1999/xlink">
<g id="graph0" class="graph" transform="scale(1 1) rotate(0) translate(4 399.6274)">
<title>G</title>
<polygon fill="#ffffff" stroke="transparent" points="-4,4 -4,-399.6274 554.5402,-399.6274 554.5402,4 -4,4"/>
<!-- A0 -->
<g id="node1" class="node">
<title>A0</title>
<g transform="translate(61.513,-249.6274)" style="fill:none;stroke:black;stroke-width:1px"><circle cx="0" cy="-20" r="7.5" />
                <line x1="0" y1="-12.5" x2="0" y2="5" />
                <line x1="-15" y1="-5" x2="15" y2="-5" />
                <line x1="0" y1="5" x2="-15" y2="17" />
                <line x1="0" y1="5" x2="15" y2="17" /></g>
<text text-anchor="middle" x="61.513" y="-224.6274" font-family="Helvetica,sans-Serif" font-size="10.00" fill="#000000">Admin blogger</text>
</g>
<!-- A1 -->
<g id="node2" class="node">
<title>A1</title>
<g transform="translate(237.3144,-356.6274)" style="fill:none;stroke:black;stroke-width:1px"><circle cx="0" cy="-20" r="7.5" />
                <line x1="0" y1="-12.5" x2="0" y2="5" />
                <line x1="-15" y1="-5" x2="15" y2="-5" />
                <line x1="0" y1="5" x2="-15" y2="17" />
                <line x1="0" y1="5" x2="15" y2="17" /></g>
<text text-anchor="middle" x="237.3144" y="-331.6274" font-family="Helvetica,sans-Serif" font-size="10.00" fill="#000000">Blogger</text>
</g>
<!-- A0&#45;&gt;A1 -->
<g id="edge1" class="edge">
<title>A0&#45;&gt;A1</title>
<path fill="none" stroke="#000000" d="M121.0313,-288.8527C140.7265,-300.84 162.5512,-314.1235 181.9237,-325.9144"/>
<polygon fill="none" stroke="#000000" points="180.2737,-329.0074 190.6356,-331.2168 183.9131,-323.0278 180.2737,-329.0074"/>
</g>
<!-- A2 -->
<g id="node3" class="node">
<title>A2</title>
<ellipse fill="none" stroke="#000000" cx="237.3144" cy="-287.6274" rx="63.0775" ry="18"/>
<text text-anchor="middle" x="237.3144" y="-284.6274" font-family="Helvetica,sans-Serif" font-size="10.00" fill="#000000">Manage bloggers</text>
</g>
<!-- A0&#45;&gt;A2 -->
<g id="edge2" class="edge">
<title>A0&#45;&gt;A2</title>
<path fill="none" stroke="#000000" d="M123.494,-264.9671C143.6606,-268.982 165.8262,-273.395 185.1964,-277.2513"/>
</g>
<!-- A5 -->
<g id="node6" class="node">
<title>A5</title>
<ellipse fill="none" stroke="#000000" cx="237.3144" cy="-204.6274" rx="54.7019" ry="18"/>
<text text-anchor="middle" x="237.3144" y="-201.6274" font-family="Helvetica,sans-Serif" font-size="10.00" fill="#000000">Manage blogs</text>
</g>
<!-- A0&#45;&gt;A5 -->
<g id="edge5" class="edge">
<title>A0&#45;&gt;A5</title>
<path fill="none" stroke="#000000" d="M123.494,-235.7044C147.2194,-229.2265 173.7116,-221.9932 195.1637,-216.1361"/>
</g>
<!-- A9 -->
<g id="node10" class="node">
<title>A9</title>
<ellipse fill="none" stroke="#000000" cx="237.3144" cy="-81.6274" rx="40.7858" ry="18"/>
<text text-anchor="middle" x="237.3144" y="-78.6274" font-family="Helvetica,sans-Serif" font-size="10.00" fill="#000000">Statictics</text>
</g>
<!-- A0&#45;&gt;A9 -->
<g id="edge9" class="edge">
<title>A0&#45;&gt;A9</title>
<path fill="none" stroke="#000000" d="M98.796,-216.3627C136.2901,-179.8925 192.4235,-125.2923 220.3181,-98.1595"/>
</g>
<!-- A3 -->
<g id="node4" class="node">
<title>A3</title>
<ellipse fill="none" stroke="#000000" cx="478.0865" cy="-361.6274" rx="65.7314" ry="18"/>
<text text-anchor="middle" x="478.0865" y="-358.6274" font-family="Helvetica,sans-Serif" font-size="10.00" fill="#000000">Grant permissions</text>
</g>
<!-- A2&#45;&gt;A3 -->
<g id="edge3" class="edge">
<title>A2&#45;&gt;A3</title>
<path fill="none" stroke="#000000" stroke-dasharray="5,2" d="M280.3596,-300.8571C320.6413,-313.2375 380.957,-331.7752 424.3735,-345.119"/>
<polygon fill="#000000" stroke="#000000" points="434.1942,-348.1374 423.3134,-349.5009 429.4149,-346.6684 424.6355,-345.1995 424.6355,-345.1995 424.6355,-345.1995 429.4149,-346.6684 425.9575,-340.898 434.1942,-348.1374 434.1942,-348.1374"/>
<text text-anchor="middle" x="353.1178" y="-333.6274" font-family="Helvetica,sans-Serif" font-size="10.00" fill="#000000">&lt;&lt;include&gt;&gt;</text>
</g>
<!-- A4 -->
<g id="node5" class="node">
<title>A4</title>
<ellipse fill="none" stroke="#000000" cx="478.0865" cy="-302.6274" rx="68.2526" ry="22.7556"/>
<text text-anchor="middle" x="478.0865" y="-305.6274" font-family="Helvetica,sans-Serif" font-size="10.00" fill="#000000">Delete violating</text>
<text text-anchor="middle" x="478.0865" y="-293.6274" font-family="Helvetica,sans-Serif" font-size="10.00" fill="#000000">accounts</text>
</g>
<!-- A2&#45;&gt;A4 -->
<g id="edge4" class="edge">
<title>A2&#45;&gt;A4</title>
<path fill="none" stroke="#000000" stroke-dasharray="5,2" d="M299.3192,-291.4903C330.2557,-293.4176 367.979,-295.7678 400.7851,-297.8116"/>
<polygon fill="#000000" stroke="#000000" points="410.7955,-298.4352 400.535,-302.3046 405.8051,-298.1243 400.8148,-297.8133 400.8148,-297.8133 400.8148,-297.8133 405.8051,-298.1243 401.0947,-293.322 410.7955,-298.4352 410.7955,-298.4352"/>
<text text-anchor="middle" x="353.1178" y="-298.6274" font-family="Helvetica,sans-Serif" font-size="10.00" fill="#000000">&lt;&lt;include&gt;&gt;</text>
</g>
<!-- A6 -->
<g id="node7" class="node">
<title>A6</title>
<ellipse fill="none" stroke="#000000" cx="478.0865" cy="-243.6274" rx="52.0244" ry="18"/>
<text text-anchor="middle" x="478.0865" y="-240.6274" font-family="Helvetica,sans-Serif" font-size="10.00" fill="#000000">Approve blog</text>
</g>
<!-- A5&#45;&gt;A6 -->
<g id="edge6" class="edge">
<title>A5&#45;&gt;A6</title>
<path fill="none" stroke="#000000" stroke-dasharray="5,2" d="M286.3284,-212.5667C325.2421,-218.8698 379.727,-227.6953 420.6787,-234.3286"/>
<polygon fill="#000000" stroke="#000000" points="430.7808,-235.9649 420.1899,-238.808 425.8452,-235.1654 420.9095,-234.3659 420.9095,-234.3659 420.9095,-234.3659 425.8452,-235.1654 421.6291,-229.9238 430.7808,-235.9649 430.7808,-235.9649"/>
<text text-anchor="middle" x="353.1178" y="-229.6274" font-family="Helvetica,sans-Serif" font-size="10.00" fill="#000000">&lt;&lt;include&gt;&gt;</text>
</g>
<!-- A7 -->
<g id="node8" class="node">
<title>A7</title>
<ellipse fill="none" stroke="#000000" cx="478.0865" cy="-189.6274" rx="63.7276" ry="18"/>
<text text-anchor="middle" x="478.0865" y="-186.6274" font-family="Helvetica,sans-Serif" font-size="10.00" fill="#000000">Delete comments</text>
</g>
<!-- A5&#45;&gt;A7 -->
<g id="edge7" class="edge">
<title>A5&#45;&gt;A7</title>
<path fill="none" stroke="#000000" stroke-dasharray="5,2" d="M291.0487,-201.2798C324.7469,-199.1804 368.6195,-196.4472 405.4036,-194.1555"/>
<polygon fill="#000000" stroke="#000000" points="415.5763,-193.5218 405.8755,-198.6349 410.586,-193.8327 405.5957,-194.1437 405.5957,-194.1437 405.5957,-194.1437 410.586,-193.8327 405.3158,-189.6524 415.5763,-193.5218 415.5763,-193.5218"/>
<text text-anchor="middle" x="353.1178" y="-201.6274" font-family="Helvetica,sans-Serif" font-size="10.00" fill="#000000">&lt;&lt;include&gt;&gt;</text>
</g>
<!-- A8 -->
<g id="node9" class="node">
<title>A8</title>
<ellipse fill="none" stroke="#000000" cx="478.0865" cy="-135.6274" rx="58.6997" ry="18"/>
<text text-anchor="middle" x="478.0865" y="-132.6274" font-family="Helvetica,sans-Serif" font-size="10.00" fill="#000000">Hide comments</text>
</g>
<!-- A5&#45;&gt;A8 -->
<g id="edge8" class="edge">
<title>A5&#45;&gt;A8</title>
<path fill="none" stroke="#000000" stroke-dasharray="5,2" d="M278.7046,-192.7659C319.3296,-181.1237 381.4425,-163.3235 425.5339,-150.6878"/>
<polygon fill="#000000" stroke="#000000" points="435.2115,-147.9145 426.8382,-154.9953 430.405,-149.2919 425.5984,-150.6694 425.5984,-150.6694 425.5984,-150.6694 430.405,-149.2919 424.3587,-146.3435 435.2115,-147.9145 435.2115,-147.9145"/>
<text text-anchor="middle" x="353.1178" y="-180.6274" font-family="Helvetica,sans-Serif" font-size="10.00" fill="#000000">&lt;&lt;include&gt;&gt;</text>
</g>
<!-- A10 -->
<g id="node11" class="node">
<title>A10</title>
<ellipse fill="none" stroke="#000000" cx="478.0865" cy="-81.6274" rx="48.8378" ry="18"/>
<text text-anchor="middle" x="478.0865" y="-78.6274" font-family="Helvetica,sans-Serif" font-size="10.00" fill="#000000">Count blogs</text>
</g>
<!-- A9&#45;&gt;A10 -->
<g id="edge10" class="edge">
<title>A9&#45;&gt;A10</title>
<path fill="none" stroke="#000000" stroke-dasharray="5,2" d="M278.431,-81.6274C316.9773,-81.6274 375.0417,-81.6274 418.632,-81.6274"/>
<polygon fill="#000000" stroke="#000000" points="428.8192,-81.6274 418.8192,-86.1275 423.8192,-81.6275 418.8192,-81.6275 418.8192,-81.6275 418.8192,-81.6275 423.8192,-81.6275 418.8191,-77.1275 428.8192,-81.6274 428.8192,-81.6274"/>
<text text-anchor="middle" x="353.1178" y="-84.6274" font-family="Helvetica,sans-Serif" font-size="10.00" fill="#000000">&lt;&lt;include&gt;&gt;</text>
</g>
<!-- A11 -->
<g id="node12" class="node">
<title>A11</title>
<ellipse fill="none" stroke="#000000" cx="478.0865" cy="-22.6274" rx="72.4074" ry="22.7556"/>
<text text-anchor="middle" x="478.0865" y="-25.6274" font-family="Helvetica,sans-Serif" font-size="10.00" fill="#000000">Count number of</text>
<text text-anchor="middle" x="478.0865" y="-13.6274" font-family="Helvetica,sans-Serif" font-size="10.00" fill="#000000">visits</text>
</g>
<!-- A9&#45;&gt;A11 -->
<g id="edge11" class="edge">
<title>A9&#45;&gt;A11</title>
<path fill="none" stroke="#000000" stroke-dasharray="5,2" d="M273.1004,-72.8582C309.3934,-63.9648 366.4289,-49.9886 411.1326,-39.0341"/>
<polygon fill="#000000" stroke="#000000" points="421.0495,-36.604 412.4079,-43.3548 416.1932,-37.7941 411.3369,-38.9842 411.3369,-38.9842 411.3369,-38.9842 416.1932,-37.7941 410.2658,-34.6135 421.0495,-36.604 421.0495,-36.604"/>
<text text-anchor="middle" x="353.1178" y="-61.6274" font-family="Helvetica,sans-Serif" font-size="10.00" fill="#000000">&lt;&lt;include&gt;&gt;</text>
</g>
</g>
</svg>
