<?xml version="1.0" encoding="UTF-8" standalone="no"?>
<!DOCTYPE svg PUBLIC "-//W3C//DTD SVG 1.1//EN"
 "http://www.w3.org/Graphics/SVG/1.1/DTD/svg11.dtd">
<!-- Generated by graphviz version 2.40.1 (20161225.0304)
 -->
<!-- Title: G Pages: 1 -->
<svg width="312pt" height="394pt"
 viewBox="0.00 0.00 312.12 394.00" xmlns="http://www.w3.org/2000/svg" xmlns:xlink="http://www.w3.org/1999/xlink">
<g id="graph0" class="graph" transform="scale(1 1) rotate(0) translate(4 390)">
<title>G</title>
<polygon fill="#ffffff" stroke="transparent" points="-4,4 -4,-390 308.1155,-390 308.1155,4 -4,4"/>
<!-- A0 -->
<g id="node1" class="node">
<title>A0</title>
<ellipse fill="none" stroke="#000000" cx="148" cy="-375" rx="11" ry="11"/>
</g>
<!-- A1 -->
<g id="node2" class="node">
<title>A1</title>
<path fill="none" stroke="#000000" d="M187.5739,-328C187.5739,-328 108.4261,-328 108.4261,-328 102.4261,-328 96.4261,-322 96.4261,-316 96.4261,-316 96.4261,-304 96.4261,-304 96.4261,-298 102.4261,-292 108.4261,-292 108.4261,-292 187.5739,-292 187.5739,-292 193.5739,-292 199.5739,-298 199.5739,-304 199.5739,-304 199.5739,-316 199.5739,-316 199.5739,-322 193.5739,-328 187.5739,-328"/>
<text text-anchor="middle" x="148" y="-307" font-family="Helvetica,sans-Serif" font-size="10.00" fill="#000000">Interact with blog</text>
</g>
<!-- A0&#45;&gt;A1 -->
<g id="edge1" class="edge">
<title>A0&#45;&gt;A1</title>
<path fill="none" stroke="#000000" d="M148,-363.9736C148,-356.9446 148,-347.49 148,-338.4584"/>
<polygon fill="#000000" stroke="#000000" points="148,-328.2209 152.5001,-338.2209 148,-333.2209 148.0001,-338.2209 148.0001,-338.2209 148.0001,-338.2209 148,-333.2209 143.5001,-338.221 148,-328.2209 148,-328.2209"/>
</g>
<!-- A2 -->
<g id="node3" class="node">
<title>A2</title>
<path fill="none" stroke="#000000" d="M172.5722,-256C172.5722,-256 123.4278,-256 123.4278,-256 117.4278,-256 111.4278,-250 111.4278,-244 111.4278,-244 111.4278,-232 111.4278,-232 111.4278,-226 117.4278,-220 123.4278,-220 123.4278,-220 172.5722,-220 172.5722,-220 178.5722,-220 184.5722,-226 184.5722,-232 184.5722,-232 184.5722,-244 184.5722,-244 184.5722,-250 178.5722,-256 172.5722,-256"/>
<text text-anchor="middle" x="148" y="-235" font-family="Helvetica,sans-Serif" font-size="10.00" fill="#000000">Read blog</text>
</g>
<!-- A1&#45;&gt;A2 -->
<g id="edge2" class="edge">
<title>A1&#45;&gt;A2</title>
<path fill="none" stroke="#000000" d="M148,-291.8314C148,-284.131 148,-274.9743 148,-266.4166"/>
<polygon fill="#000000" stroke="#000000" points="148,-256.4133 152.5001,-266.4132 148,-261.4133 148.0001,-266.4133 148.0001,-266.4133 148.0001,-266.4133 148,-261.4133 143.5001,-266.4133 148,-256.4133 148,-256.4133"/>
</g>
<!-- A3 -->
<g id="node4" class="node">
<title>A3</title>
<polygon fill="#d3d3d3" stroke="#000000" stroke-width="4" points="130,-179.5 130,-183.5 166,-183.5 166,-179.5 130,-179.5"/>
<text text-anchor="middle" x="147.639" y="-181.2" font-family="Helvetica,sans-Serif" font-size="1.00" fill="#000000"> </text>
</g>
<!-- A2&#45;&gt;A3 -->
<g id="edge3" class="edge">
<title>A2&#45;&gt;A3:n</title>
<path fill="none" stroke="#000000" d="M148,-219.8333C148,-212.1338 148,-202.8359 148,-193.6816"/>
<polygon fill="#000000" stroke="#000000" points="148,-183.5 152.5001,-193.5 148,-188.5 148.0001,-193.5 148.0001,-193.5 148.0001,-193.5 148,-188.5 143.5001,-193.5 148,-183.5 148,-183.5"/>
</g>
<!-- A4 -->
<g id="node5" class="node">
<title>A4</title>
<path fill="none" stroke="#000000" d="M42,-143C42,-143 12,-143 12,-143 6,-143 0,-137 0,-131 0,-131 0,-119 0,-119 0,-113 6,-107 12,-107 12,-107 42,-107 42,-107 48,-107 54,-113 54,-119 54,-119 54,-131 54,-131 54,-137 48,-143 42,-143"/>
<text text-anchor="middle" x="27" y="-122" font-family="Helvetica,sans-Serif" font-size="10.00" fill="#000000">Like</text>
</g>
<!-- A3&#45;&gt;A4 -->
<g id="edge4" class="edge">
<title>A3&#45;&gt;A4</title>
<path fill="none" stroke="#000000" d="M143.3644,-179.4751C131.525,-174.2888 99.071,-159.9796 63.2432,-143.0358"/>
<polygon fill="#000000" stroke="#000000" points="54.0722,-138.6752 65.0357,-138.9053 58.5878,-140.8223 63.1033,-142.9693 63.1033,-142.9693 63.1033,-142.9693 58.5878,-140.8223 61.171,-147.0333 54.0722,-138.6752 54.0722,-138.6752"/>
</g>
<!-- A5 -->
<g id="node6" class="node">
<title>A5</title>
<path fill="none" stroke="#000000" d="M131.8338,-143C131.8338,-143 84.1662,-143 84.1662,-143 78.1662,-143 72.1662,-137 72.1662,-131 72.1662,-131 72.1662,-119 72.1662,-119 72.1662,-113 78.1662,-107 84.1662,-107 84.1662,-107 131.8338,-107 131.8338,-107 137.8338,-107 143.8338,-113 143.8338,-119 143.8338,-119 143.8338,-131 143.8338,-131 143.8338,-137 137.8338,-143 131.8338,-143"/>
<text text-anchor="middle" x="108" y="-122" font-family="Helvetica,sans-Serif" font-size="10.00" fill="#000000">Comment</text>
</g>
<!-- A3&#45;&gt;A5 -->
<g id="edge5" class="edge">
<title>A3&#45;&gt;A5</title>
<path fill="none" stroke="#000000" d="M146.2813,-179.0723C142.8256,-174.1911 134.6907,-162.7005 126.8045,-151.5614"/>
<polygon fill="#000000" stroke="#000000" points="120.904,-143.2269 130.355,-148.7884 123.7931,-147.3078 126.6822,-151.3886 126.6822,-151.3886 126.6822,-151.3886 123.7931,-147.3078 123.0095,-153.9888 120.904,-143.2269 120.904,-143.2269"/>
</g>
<!-- A6 -->
<g id="node7" class="node">
<title>A6</title>
<path fill="none" stroke="#000000" d="M204.176,-143C204.176,-143 173.824,-143 173.824,-143 167.824,-143 161.824,-137 161.824,-131 161.824,-131 161.824,-119 161.824,-119 161.824,-113 167.824,-107 173.824,-107 173.824,-107 204.176,-107 204.176,-107 210.176,-107 216.176,-113 216.176,-119 216.176,-119 216.176,-131 216.176,-131 216.176,-137 210.176,-143 204.176,-143"/>
<text text-anchor="middle" x="189" y="-122" font-family="Helvetica,sans-Serif" font-size="10.00" fill="#000000">Share</text>
</g>
<!-- A3&#45;&gt;A6 -->
<g id="edge6" class="edge">
<title>A3&#45;&gt;A6</title>
<path fill="none" stroke="#000000" d="M149.7617,-179.0723C153.3038,-174.1911 161.6421,-162.7005 169.7254,-151.5614"/>
<polygon fill="#000000" stroke="#000000" points="175.7734,-143.2269 173.5423,-153.9634 172.8368,-147.2737 169.9001,-151.3205 169.9001,-151.3205 169.9001,-151.3205 172.8368,-147.2737 166.258,-148.6775 175.7734,-143.2269 175.7734,-143.2269"/>
</g>
<!-- A7 -->
<g id="node8" class="node">
<title>A7</title>
<path fill="none" stroke="#000000" d="M292.2314,-143C292.2314,-143 245.7686,-143 245.7686,-143 239.7686,-143 233.7686,-137 233.7686,-131 233.7686,-131 233.7686,-119 233.7686,-119 233.7686,-113 239.7686,-107 245.7686,-107 245.7686,-107 292.2314,-107 292.2314,-107 298.2314,-107 304.2314,-113 304.2314,-119 304.2314,-119 304.2314,-131 304.2314,-131 304.2314,-137 298.2314,-143 292.2314,-143"/>
<text text-anchor="middle" x="269" y="-122" font-family="Helvetica,sans-Serif" font-size="10.00" fill="#000000">Hide blog</text>
</g>
<!-- A3&#45;&gt;A7 -->
<g id="edge7" class="edge">
<title>A3&#45;&gt;A7</title>
<path fill="none" stroke="#000000" d="M152.3065,-179.4891C163.8805,-174.0847 196.6704,-158.7737 224.5551,-145.7532"/>
<polygon fill="#000000" stroke="#000000" points="233.7859,-141.443 226.6289,-149.7513 229.2554,-143.5584 224.725,-145.6739 224.725,-145.6739 224.725,-145.6739 229.2554,-143.5584 222.8211,-141.5965 233.7859,-141.443 233.7859,-141.443"/>
</g>
<!-- A8 -->
<g id="node9" class="node">
<title>A8</title>
<polygon fill="#d3d3d3" stroke="#000000" stroke-width="4" points="131,-66.5 131,-70.5 167,-70.5 167,-66.5 131,-66.5"/>
<text text-anchor="middle" x="135.139" y="-68.2" font-family="Helvetica,sans-Serif" font-size="1.00" fill="#000000"> </text>
<polyline fill="none" stroke="#000000" stroke-width="4" points="139.2779,-66.5 139.2779,-70.5 "/>
<text text-anchor="middle" x="143.9169" y="-68.2" font-family="Helvetica,sans-Serif" font-size="1.00" fill="#000000"> </text>
<polyline fill="none" stroke="#000000" stroke-width="4" points="148.5558,-66.5 148.5558,-70.5 "/>
<text text-anchor="middle" x="153.1948" y="-68.2" font-family="Helvetica,sans-Serif" font-size="1.00" fill="#000000"> </text>
<polyline fill="none" stroke="#000000" stroke-width="4" points="157.8337,-66.5 157.8337,-70.5 "/>
<text text-anchor="middle" x="161.9726" y="-68.2" font-family="Helvetica,sans-Serif" font-size="1.00" fill="#000000"> </text>
</g>
<!-- A4&#45;&gt;A8 -->
<g id="edge8" class="edge">
<title>A4&#45;&gt;A8:n</title>
<path fill="none" stroke="#000000" d="M54.253,-111.3385C77.7486,-99.551 110.2825,-83.2041 125.9083,-75.2397"/>
<polygon fill="#000000" stroke="#000000" points="135,-70.5 128.2129,-79.1131 130.5663,-72.8114 126.1326,-75.1228 126.1326,-75.1228 126.1326,-75.1228 130.5663,-72.8114 124.0524,-71.1325 135,-70.5 135,-70.5"/>
</g>
<!-- A5&#45;&gt;A8 -->
<g id="edge9" class="edge">
<title>A5&#45;&gt;A8:n</title>
<path fill="none" stroke="#000000" d="M127.6853,-106.7199C133.9887,-99.3799 140.014,-90.3305 142.6327,-80.5238"/>
<polygon fill="#000000" stroke="#000000" points="144,-70.5 147.1071,-81.0165 143.3242,-75.4541 142.6484,-80.4082 142.6484,-80.4082 142.6484,-80.4082 143.3242,-75.4541 138.1897,-79.8 144,-70.5 144,-70.5"/>
</g>
<!-- A6&#45;&gt;A8 -->
<g id="edge10" class="edge">
<title>A6&#45;&gt;A8:n</title>
<path fill="none" stroke="#000000" d="M169.3147,-106.7199C163.0113,-99.3799 156.986,-90.3305 154.3673,-80.5238"/>
<polygon fill="#000000" stroke="#000000" points="153,-70.5 158.8103,-79.8 153.6758,-75.4541 154.3516,-80.4082 154.3516,-80.4082 154.3516,-80.4082 153.6758,-75.4541 149.8929,-81.0165 153,-70.5 153,-70.5"/>
</g>
<!-- A7&#45;&gt;A8 -->
<g id="edge11" class="edge">
<title>A7&#45;&gt;A8:n</title>
<path fill="none" stroke="#000000" d="M233.6677,-110.6493C210.2926,-100.7467 181.6671,-87.7313 168.8152,-78.3796"/>
<polygon fill="#000000" stroke="#000000" points="162,-70.5 171.9454,-75.1196 165.2709,-74.2817 168.5418,-78.0634 168.5418,-78.0634 168.5418,-78.0634 165.2709,-74.2817 165.1383,-81.0072 162,-70.5 162,-70.5"/>
</g>
<!-- A9 -->
<g id="node10" class="node">
<title>A9</title>
<ellipse fill="none" stroke="#000000" cx="149" cy="-15" rx="11" ry="11"/>
<ellipse fill="none" stroke="#000000" cx="149" cy="-15" rx="15" ry="15"/>
</g>
<!-- A8&#45;&gt;A9 -->
<g id="edge12" class="edge">
<title>A8&#45;&gt;A9</title>
<path fill="none" stroke="#000000" d="M149,-66.2012C149,-61.6411 149,-50.9889 149,-40.5748"/>
<polygon fill="#000000" stroke="#000000" points="149,-30.4744 153.5001,-40.4744 149,-35.4744 149.0001,-40.4744 149.0001,-40.4744 149.0001,-40.4744 149,-35.4744 144.5001,-40.4745 149,-30.4744 149,-30.4744"/>
</g>
</g>
</svg>
