<?xml version="1.0" encoding="UTF-8" standalone="no"?>
<!DOCTYPE svg PUBLIC "-//W3C//DTD SVG 1.1//EN"
 "http://www.w3.org/Graphics/SVG/1.1/DTD/svg11.dtd">
<!-- Generated by graphviz version 2.40.1 (20161225.0304)
 -->
<!-- Title: G Pages: 1 -->
<svg width="296pt" height="215pt"
 viewBox="0.00 0.00 296.00 215.00" xmlns="http://www.w3.org/2000/svg" xmlns:xlink="http://www.w3.org/1999/xlink">
<g id="graph0" class="graph" transform="scale(1 1) rotate(0) translate(4 211)">
<title>G</title>
<polygon fill="#ffffff" stroke="transparent" points="-4,4 -4,-211 292,-211 292,4 -4,4"/>
<!-- A0 -->
<g id="node1" class="node">
<title>A0</title>
<polygon fill="none" stroke="#000000" points="0,-85 0,-117 54,-117 54,-85 0,-85"/>
<text text-anchor="start" x="9.7735" y="-98" font-family="Helvetica,sans-Serif" font-size="10.00" fill="#000000">Blogger</text>
<polygon fill="none" stroke="#000000" points="0,-65 0,-85 54,-85 54,-65 0,-65"/>
<polygon fill="none" stroke="#000000" points="0,-45 0,-65 54,-65 54,-45 0,-45"/>
</g>
<!-- A1 -->
<g id="node2" class="node">
<title>A1</title>
<polygon fill="none" stroke="#000000" points="104.5,-130 104.5,-162 175.5,-162 175.5,-130 104.5,-130"/>
<text text-anchor="start" x="114.44" y="-143" font-family="Helvetica,sans-Serif" font-size="10.00" fill="#000000">Blog Admin</text>
<polygon fill="none" stroke="#000000" points="104.5,-110 104.5,-130 175.5,-130 175.5,-110 104.5,-110"/>
<polygon fill="none" stroke="#000000" points="104.5,-90 104.5,-110 175.5,-110 175.5,-90 104.5,-90"/>
</g>
<!-- A0&#45;&gt;A1 -->
<g id="edge1" class="edge">
<title>A0&#45;&gt;A1</title>
<path fill="none" stroke="#000000" d="M63.6742,-95.6697C76.483,-100.7932 90.8391,-106.5356 103.5853,-111.6341"/>
<polygon fill="none" stroke="#000000" points="64.8178,-92.3575 54.2331,-91.8932 62.218,-98.8569 64.8178,-92.3575"/>
</g>
<!-- A2 -->
<g id="node3" class="node">
<title>A2</title>
<polygon fill="none" stroke="#000000" points="119.5,-40 119.5,-72 159.5,-72 159.5,-40 119.5,-40"/>
<text text-anchor="start" x="129.497" y="-53" font-family="Helvetica,sans-Serif" font-size="10.00" fill="#000000">Blog</text>
<polygon fill="none" stroke="#000000" points="119.5,-20 119.5,-40 159.5,-40 159.5,-20 119.5,-20"/>
<polygon fill="none" stroke="#000000" points="119.5,0 119.5,-20 159.5,-20 159.5,0 119.5,0"/>
</g>
<!-- A0&#45;&gt;A2 -->
<g id="edge2" class="edge">
<title>A0&#45;&gt;A2</title>
<path fill="none" stroke="#000000" d="M65.4884,-65.6046C77.4667,-60.8133 90.6424,-55.5431 102.5155,-50.7938"/>
<polygon fill="none" stroke="#000000" points="65.3748,-65.65 61.2896,-71.5923 54.2331,-70.1068 58.3184,-64.1645 65.3748,-65.65"/>
<polygon fill="#000000" stroke="#000000" points="112.1278,-46.9489 104.5143,-54.841 107.4854,-48.8059 102.843,-50.6629 102.843,-50.6629 102.843,-50.6629 107.4854,-48.8059 101.1717,-46.4847 112.1278,-46.9489 112.1278,-46.9489"/>
<text text-anchor="middle" x="98.4372" y="-58.5286" font-family="Helvetica,sans-Serif" font-size="10.00" fill="#000000">have 0..*</text>
<text text-anchor="middle" x="67.9237" y="-52.527" font-family="Helvetica,sans-Serif" font-size="10.00" fill="#000000">1</text>
</g>
<!-- A3 -->
<g id="node4" class="node">
<title>A3</title>
<polygon fill="none" stroke="#000000" points="225.5,-40 225.5,-72 288.5,-72 288.5,-40 225.5,-40"/>
<text text-anchor="start" x="235.3335" y="-53" font-family="Helvetica,sans-Serif" font-size="10.00" fill="#000000">Comment</text>
<polygon fill="none" stroke="#000000" points="225.5,-20 225.5,-40 288.5,-40 288.5,-20 225.5,-20"/>
<polygon fill="none" stroke="#000000" points="225.5,0 225.5,-20 288.5,-20 288.5,0 225.5,0"/>
</g>
<!-- A2&#45;&gt;A3 -->
<g id="edge3" class="edge">
<title>A2&#45;&gt;A3</title>
<path fill="none" stroke="#000000" d="M178.7199,-36C190.3545,-36 203.1347,-36 214.9139,-36"/>
<polygon fill="none" stroke="#000000" points="178.6362,-36.0001 172.6362,-40 166.6362,-36 172.6363,-32 178.6362,-36.0001"/>
<polygon fill="#000000" stroke="#000000" points="224.9537,-36 214.9538,-40.5001 219.9537,-36 214.9537,-36.0001 214.9537,-36.0001 214.9537,-36.0001 219.9537,-36 214.9537,-31.5001 224.9537,-36 224.9537,-36"/>
<text text-anchor="middle" x="206.8276" y="-41.4524" font-family="Helvetica,sans-Serif" font-size="10.00" fill="#000000">have 0..*</text>
<text text-anchor="middle" x="184.7624" y="-24.5476" font-family="Helvetica,sans-Serif" font-size="10.00" fill="#000000">1</text>
</g>
<!-- A4 -->
<g id="node5" class="node">
<title>A4</title>
<polygon fill="none" stroke="#000000" points="4,-175 4,-207 51,-207 51,-175 4,-175"/>
<text text-anchor="start" x="13.6075" y="-188" font-family="Helvetica,sans-Serif" font-size="10.00" fill="#000000">Image</text>
<polygon fill="none" stroke="#000000" points="4,-155 4,-175 51,-175 51,-155 4,-155"/>
<polygon fill="none" stroke="#000000" points="4,-135 4,-155 51,-155 51,-135 4,-135"/>
</g>
</g>
</svg>
