<?xml version="1.0" encoding="UTF-8" standalone="no"?>
<!DOCTYPE svg PUBLIC "-//W3C//DTD SVG 1.1//EN"
 "http://www.w3.org/Graphics/SVG/1.1/DTD/svg11.dtd">
<!-- Generated by graphviz version 2.40.1 (20161225.0304)
 -->
<!-- Title: G Pages: 1 -->
<svg width="199pt" height="557pt"
 viewBox="0.00 0.00 199.29 557.00" xmlns="http://www.w3.org/2000/svg" xmlns:xlink="http://www.w3.org/1999/xlink">
<g id="graph0" class="graph" transform="scale(1 1) rotate(0) translate(4 553)">
<title>G</title>
<polygon fill="#ffffff" stroke="transparent" points="-4,4 -4,-553 195.293,-553 195.293,4 -4,4"/>
<!-- A0 -->
<g id="node1" class="node">
<title>A0</title>
<ellipse fill="none" stroke="#000000" cx="45.3995" cy="-538" rx="11" ry="11"/>
</g>
<!-- A1 -->
<g id="node2" class="node">
<title>A1</title>
<path fill="none" stroke="#000000" d="M78.6987,-490C78.6987,-490 12.1003,-490 12.1003,-490 6.1003,-490 .1003,-484 .1003,-478 .1003,-478 .1003,-466 .1003,-466 .1003,-460 6.1003,-454 12.1003,-454 12.1003,-454 78.6987,-454 78.6987,-454 84.6987,-454 90.6987,-460 90.6987,-466 90.6987,-466 90.6987,-478 90.6987,-478 90.6987,-484 84.6987,-490 78.6987,-490"/>
<text text-anchor="middle" x="45.3995" y="-469" font-family="Helvetica,sans-Serif" font-size="10.00" fill="#000000">Manage blogs</text>
</g>
<!-- A0&#45;&gt;A1 -->
<g id="edge1" class="edge">
<title>A0&#45;&gt;A1</title>
<path fill="none" stroke="#000000" d="M45.3995,-526.804C45.3995,-519.5358 45.3995,-509.7135 45.3995,-500.3916"/>
<polygon fill="#000000" stroke="#000000" points="45.3995,-490.2423 49.8996,-500.2423 45.3995,-495.2423 45.3996,-500.2423 45.3996,-500.2423 45.3996,-500.2423 45.3995,-495.2423 40.8996,-500.2424 45.3995,-490.2423 45.3995,-490.2423"/>
</g>
<!-- A2 -->
<g id="node3" class="node">
<title>A2</title>
<path fill="none" stroke="#000000" d="M76.8085,-417C76.8085,-417 13.9905,-417 13.9905,-417 7.9905,-417 1.9905,-411 1.9905,-405 1.9905,-405 1.9905,-393 1.9905,-393 1.9905,-387 7.9905,-381 13.9905,-381 13.9905,-381 76.8085,-381 76.8085,-381 82.8085,-381 88.8085,-387 88.8085,-393 88.8085,-393 88.8085,-405 88.8085,-405 88.8085,-411 82.8085,-417 76.8085,-417"/>
<text text-anchor="middle" x="45.3995" y="-396" font-family="Helvetica,sans-Serif" font-size="10.00" fill="#000000">Approve blog</text>
</g>
<!-- A1&#45;&gt;A2 -->
<g id="edge2" class="edge">
<title>A1&#45;&gt;A2</title>
<path fill="none" stroke="#000000" d="M45.3995,-453.9551C45.3995,-445.8828 45.3995,-436.1764 45.3995,-427.1817"/>
<polygon fill="#000000" stroke="#000000" points="45.3995,-417.0904 49.8996,-427.0903 45.3995,-422.0904 45.3996,-427.0904 45.3996,-427.0904 45.3996,-427.0904 45.3995,-422.0904 40.8996,-427.0904 45.3995,-417.0904 45.3995,-417.0904"/>
</g>
<!-- A3 -->
<g id="node4" class="node">
<title>A3</title>
<polygon fill="#d3d3d3" stroke="#000000" stroke-width="4" points="27.3995,-339.5 27.3995,-343.5 63.3995,-343.5 63.3995,-339.5 27.3995,-339.5"/>
<text text-anchor="middle" x="45.0384" y="-341.2" font-family="Helvetica,sans-Serif" font-size="1.00" fill="#000000"> </text>
</g>
<!-- A2&#45;&gt;A3 -->
<g id="edge3" class="edge">
<title>A2&#45;&gt;A3:n</title>
<path fill="none" stroke="#000000" d="M45.3995,-380.5C45.3995,-372.5749 45.3995,-362.9869 45.3995,-353.5678"/>
<polygon fill="#000000" stroke="#000000" points="45.3995,-343.5 49.8996,-353.5 45.3995,-348.5 45.3996,-353.5 45.3996,-353.5 45.3996,-353.5 45.3995,-348.5 40.8996,-353.5 45.3995,-343.5 45.3995,-343.5"/>
</g>
<!-- A4 -->
<g id="node5" class="node">
<title>A4</title>
<path fill="none" stroke="#000000" d="M147.3495,-302C147.3495,-302 73.4495,-302 73.4495,-302 67.4495,-302 61.4495,-296 61.4495,-290 61.4495,-290 61.4495,-278 61.4495,-278 61.4495,-272 67.4495,-266 73.4495,-266 73.4495,-266 147.3495,-266 147.3495,-266 153.3495,-266 159.3495,-272 159.3495,-278 159.3495,-278 159.3495,-290 159.3495,-290 159.3495,-296 153.3495,-302 147.3495,-302"/>
<text text-anchor="middle" x="110.3995" y="-281" font-family="Helvetica,sans-Serif" font-size="10.00" fill="#000000">Hide comments</text>
</g>
<!-- A3&#45;&gt;A4 -->
<g id="edge4" class="edge">
<title>A3&#45;&gt;A4</title>
<path fill="none" stroke="#000000" d="M47.8682,-339.3161C53.5674,-334.2746 68.2031,-321.3276 81.8829,-309.2262"/>
<polygon fill="#000000" stroke="#000000" points="89.7522,-302.265 85.2438,-312.2612 86.0072,-305.5778 82.2622,-308.8907 82.2622,-308.8907 82.2622,-308.8907 86.0072,-305.5778 79.2806,-305.5202 89.7522,-302.265 89.7522,-302.265"/>
</g>
<!-- A5 -->
<g id="node6" class="node">
<title>A5</title>
<polygon fill="#d3d3d3" stroke="#000000" stroke-width="4" points="31.3995,-167 31.3995,-171 67.3995,-171 67.3995,-167 31.3995,-167"/>
<text text-anchor="middle" x="37.0384" y="-168.7" font-family="Helvetica,sans-Serif" font-size="1.00" fill="#000000"> </text>
<polyline fill="none" stroke="#000000" stroke-width="4" points="42.6774,-167 42.6774,-171 "/>
<text text-anchor="middle" x="48.8163" y="-168.7" font-family="Helvetica,sans-Serif" font-size="1.00" fill="#000000"> </text>
<polyline fill="none" stroke="#000000" stroke-width="4" points="54.9553,-167 54.9553,-171 "/>
<text text-anchor="middle" x="61.0942" y="-168.7" font-family="Helvetica,sans-Serif" font-size="1.00" fill="#000000"> </text>
</g>
<!-- A3&#45;&gt;A5 -->
<g id="edge5" class="edge">
<title>A3&#45;&gt;A5:n</title>
<path fill="none" stroke="#000000" d="M45.2324,-339.4752C44.1397,-326.0612 38.039,-248.4765 37.4459,-181.2596"/>
<polygon fill="#000000" stroke="#000000" points="37.3995,-171 41.9448,-180.9795 37.4222,-175.9999 37.4448,-180.9999 37.4448,-180.9999 37.4448,-180.9999 37.4222,-175.9999 32.9449,-181.0203 37.3995,-171 37.3995,-171"/>
</g>
<!-- A4&#45;&gt;A5 -->
<g id="edge6" class="edge">
<title>A4&#45;&gt;A5:n</title>
<path fill="none" stroke="#000000" d="M92.7986,-265.6942C76.1155,-246.5237 53.0213,-214.5773 49.0063,-180.9853"/>
<polygon fill="#000000" stroke="#000000" points="48.3995,-171 53.4979,-180.7086 48.7028,-175.9908 49.0061,-180.9816 49.0061,-180.9816 49.0061,-180.9816 48.7028,-175.9908 44.5144,-181.2546 48.3995,-171 48.3995,-171"/>
</g>
<!-- A6 -->
<g id="node7" class="node">
<title>A6</title>
<polygon fill="#d3d3d3" stroke="#000000" stroke-width="4" points="99.3995,-224.5 99.3995,-228.5 135.3995,-228.5 135.3995,-224.5 99.3995,-224.5"/>
<text text-anchor="middle" x="117.0384" y="-226.2" font-family="Helvetica,sans-Serif" font-size="1.00" fill="#000000"> </text>
</g>
<!-- A4&#45;&gt;A6 -->
<g id="edge7" class="edge">
<title>A4&#45;&gt;A6:n</title>
<path fill="none" stroke="#000000" d="M113.8995,-265.5733C115.1847,-257.6661 116.4698,-248.0829 117.0619,-238.6263"/>
<polygon fill="#000000" stroke="#000000" points="117.3995,-228.5 121.5637,-238.6444 117.2328,-233.4972 117.0662,-238.4944 117.0662,-238.4944 117.0662,-238.4944 117.2328,-233.4972 112.5687,-238.3445 117.3995,-228.5 117.3995,-228.5"/>
</g>
<!-- A8 -->
<g id="node9" class="node">
<title>A8</title>
<polygon fill="none" stroke="#000000" points="49.3995,-114 31.3995,-96 49.3995,-78 67.3995,-96 49.3995,-114"/>
</g>
<!-- A5&#45;&gt;A8 -->
<g id="edge10" class="edge">
<title>A5&#45;&gt;A8</title>
<path fill="none" stroke="#000000" d="M49.3995,-166.894C49.3995,-160.5829 49.3995,-141.2168 49.3995,-124.3177"/>
<polygon fill="#000000" stroke="#000000" points="49.3995,-114.2532 53.8996,-124.2532 49.3995,-119.2532 49.3996,-124.2532 49.3996,-124.2532 49.3996,-124.2532 49.3995,-119.2532 44.8996,-124.2533 49.3995,-114.2532 49.3995,-114.2532"/>
</g>
<!-- A6&#45;&gt;A5 -->
<g id="edge9" class="edge">
<title>A6&#45;&gt;A5:n</title>
<path fill="none" stroke="#000000" d="M114.3887,-224.4093C104.847,-217.6939 75.3026,-196.1881 64.9931,-180.3649"/>
<polygon fill="#000000" stroke="#000000" points="61.3995,-171 69.1834,-178.724 63.1908,-175.6681 64.9821,-180.3362 64.9821,-180.3362 64.9821,-180.3362 63.1908,-175.6681 60.7808,-181.9484 61.3995,-171 61.3995,-171"/>
</g>
<!-- A7 -->
<g id="node8" class="node">
<title>A7</title>
<path fill="none" stroke="#000000" d="M179.1867,-187C179.1867,-187 97.6123,-187 97.6123,-187 91.6123,-187 85.6123,-181 85.6123,-175 85.6123,-175 85.6123,-163 85.6123,-163 85.6123,-157 91.6123,-151 97.6123,-151 97.6123,-151 179.1867,-151 179.1867,-151 185.1867,-151 191.1867,-157 191.1867,-163 191.1867,-163 191.1867,-175 191.1867,-175 191.1867,-181 185.1867,-187 179.1867,-187"/>
<text text-anchor="middle" x="138.3995" y="-166" font-family="Helvetica,sans-Serif" font-size="10.00" fill="#000000">Delete comments</text>
</g>
<!-- A6&#45;&gt;A7 -->
<g id="edge8" class="edge">
<title>A6&#45;&gt;A7</title>
<path fill="none" stroke="#000000" d="M118.3018,-224.0293C120.0749,-219.1746 124.1941,-207.8957 128.2448,-196.8046"/>
<polygon fill="#000000" stroke="#000000" points="131.7261,-187.2724 132.5224,-198.2093 130.0108,-191.9689 128.2955,-196.6655 128.2955,-196.6655 128.2955,-196.6655 130.0108,-191.9689 124.0686,-195.1218 131.7261,-187.2724 131.7261,-187.2724"/>
</g>
<!-- A9 -->
<g id="node10" class="node">
<title>A9</title>
<ellipse fill="none" stroke="#000000" cx="49.3995" cy="-15" rx="11" ry="11"/>
<ellipse fill="none" stroke="#000000" cx="49.3995" cy="-15" rx="15" ry="15"/>
</g>
<!-- A8&#45;&gt;A9 -->
<g id="edge11" class="edge">
<title>A8&#45;&gt;A9</title>
<path fill="none" stroke="#000000" d="M49.3995,-77.6198C49.3995,-66.6129 49.3995,-52.4617 49.3995,-40.3973"/>
<polygon fill="#000000" stroke="#000000" points="49.3995,-30.0545 53.8996,-40.0545 49.3995,-35.0545 49.3996,-40.0545 49.3996,-40.0545 49.3996,-40.0545 49.3995,-35.0545 44.8996,-40.0546 49.3995,-30.0545 49.3995,-30.0545"/>
<text text-anchor="middle" x="70.7945" y="-51" font-family="Helvetica,sans-Serif" font-size="10.00" fill="#000000">[is logout]</text>
</g>
</g>
</svg>
