<?xml version="1.0" encoding="UTF-8" standalone="no"?>
<!DOCTYPE svg PUBLIC "-//W3C//DTD SVG 1.1//EN"
 "http://www.w3.org/Graphics/SVG/1.1/DTD/svg11.dtd">
<!-- Generated by graphviz version 2.40.1 (20161225.0304)
 -->
<!-- Title: G Pages: 1 -->
<svg width="320pt" height="374pt"
 viewBox="0.00 0.00 320.00 374.00" xmlns="http://www.w3.org/2000/svg" xmlns:xlink="http://www.w3.org/1999/xlink">
<g id="graph0" class="graph" transform="scale(1 1) rotate(0) translate(4 370)">
<title>G</title>
<polygon fill="#ffffff" stroke="transparent" points="-4,4 -4,-370 316,-370 316,4 -4,4"/>
<!-- A0 -->
<g id="node1" class="node">
<title>A0</title>
<polygon fill="none" stroke="#000000" points="0,-208 0,-240 78,-240 78,-208 0,-208"/>
<text text-anchor="start" x="21.7735" y="-221" font-family="Helvetica,sans-Serif" font-size="10.00" fill="#000000">Blogger</text>
<polygon fill="none" stroke="#000000" points="0,-68 0,-208 78,-208 78,-68 0,-68"/>
<text text-anchor="start" x="35.111" y="-189" font-family="Helvetica,sans-Serif" font-size="10.00" fill="#000000">id</text>
<text text-anchor="start" x="26.497" y="-177" font-family="Helvetica,sans-Serif" font-size="10.00" fill="#000000">name</text>
<text text-anchor="start" x="27.0575" y="-165" font-family="Helvetica,sans-Serif" font-size="10.00" fill="#000000">email</text>
<text text-anchor="start" x="17.608" y="-153" font-family="Helvetica,sans-Serif" font-size="10.00" fill="#000000">password</text>
<text text-anchor="start" x="25.1075" y="-141" font-family="Helvetica,sans-Serif" font-size="10.00" fill="#000000">avatar</text>
<text text-anchor="start" x="21.2175" y="-129" font-family="Helvetica,sans-Serif" font-size="10.00" fill="#000000">address</text>
<text text-anchor="start" x="21.2185" y="-117" font-family="Helvetica,sans-Serif" font-size="10.00" fill="#000000">birthday</text>
<text text-anchor="start" x="9.55" y="-105" font-family="Helvetica,sans-Serif" font-size="10.00" fill="#000000">refreshToken</text>
<text text-anchor="start" x="17.604" y="-93" font-family="Helvetica,sans-Serif" font-size="10.00" fill="#000000">createdAt</text>
<text text-anchor="start" x="16.2095" y="-81" font-family="Helvetica,sans-Serif" font-size="10.00" fill="#000000">updatedAt</text>
<polygon fill="none" stroke="#000000" points="0,-48 0,-68 78,-68 78,-48 0,-48"/>
</g>
<!-- A1 -->
<g id="node2" class="node">
<title>A1</title>
<polygon fill="none" stroke="#000000" points="128.5,-214 128.5,-246 199.5,-246 199.5,-214 128.5,-214"/>
<text text-anchor="start" x="138.44" y="-227" font-family="Helvetica,sans-Serif" font-size="10.00" fill="#000000">Blog Admin</text>
<polygon fill="none" stroke="#000000" points="128.5,-194 128.5,-214 199.5,-214 199.5,-194 128.5,-194"/>
<polygon fill="none" stroke="#000000" points="128.5,-174 128.5,-194 199.5,-194 199.5,-174 128.5,-174"/>
</g>
<!-- A0&#45;&gt;A1 -->
<g id="edge1" class="edge">
<title>A0&#45;&gt;A1</title>
<path fill="none" stroke="#000000" d="M87.2533,-169.58C100.8099,-176.7667 115.3006,-184.4485 127.9691,-191.1643"/>
<polygon fill="none" stroke="#000000" points="88.5256,-166.2932 78.051,-164.7017 85.2469,-172.4779 88.5256,-166.2932"/>
</g>
<!-- A2 -->
<g id="node3" class="node">
<title>A2</title>
<polygon fill="none" stroke="#000000" points="131.5,-124 131.5,-156 196.5,-156 196.5,-124 131.5,-124"/>
<text text-anchor="start" x="153.997" y="-137" font-family="Helvetica,sans-Serif" font-size="10.00" fill="#000000">Blog</text>
<polygon fill="none" stroke="#000000" points="131.5,-20 131.5,-124 196.5,-124 196.5,-20 131.5,-20"/>
<text text-anchor="start" x="160.111" y="-105" font-family="Helvetica,sans-Serif" font-size="10.00" fill="#000000">id</text>
<text text-anchor="start" x="156.2225" y="-93" font-family="Helvetica,sans-Serif" font-size="10.00" fill="#000000">title</text>
<text text-anchor="start" x="142.3295" y="-81" font-family="Helvetica,sans-Serif" font-size="10.00" fill="#000000">thumbnail</text>
<text text-anchor="start" x="147.603" y="-69" font-family="Helvetica,sans-Serif" font-size="10.00" fill="#000000">content</text>
<text text-anchor="start" x="150.662" y="-57" font-family="Helvetica,sans-Serif" font-size="10.00" fill="#000000">status</text>
<text text-anchor="start" x="142.604" y="-45" font-family="Helvetica,sans-Serif" font-size="10.00" fill="#000000">createdAt</text>
<text text-anchor="start" x="141.2095" y="-33" font-family="Helvetica,sans-Serif" font-size="10.00" fill="#000000">updatedAt</text>
<polygon fill="none" stroke="#000000" points="131.5,0 131.5,-20 196.5,-20 196.5,0 131.5,0"/>
</g>
<!-- A0&#45;&gt;A2 -->
<g id="edge2" class="edge">
<title>A0&#45;&gt;A2</title>
<path fill="none" stroke="#000000" d="M88.6741,-117.6667C99.6502,-111.8481 111.1706,-105.7409 121.7924,-100.1101"/>
<polygon fill="none" stroke="#000000" points="88.6533,-117.6777 85.2257,-124.0221 78.051,-123.2983 81.4786,-116.9539 88.6533,-117.6777"/>
<polygon fill="#000000" stroke="#000000" points="130.859,-95.3037 124.1314,-103.9634 126.4413,-97.6456 122.0237,-99.9875 122.0237,-99.9875 122.0237,-99.9875 126.4413,-97.6456 119.916,-96.0116 130.859,-95.3037 130.859,-95.3037"/>
<text text-anchor="middle" x="118.8029" y="-108.2614" font-family="Helvetica,sans-Serif" font-size="10.00" fill="#000000">have 0..*</text>
<text text-anchor="middle" x="90.1071" y="-104.3405" font-family="Helvetica,sans-Serif" font-size="10.00" fill="#000000">1</text>
</g>
<!-- A3 -->
<g id="node4" class="node">
<title>A3</title>
<polygon fill="none" stroke="#000000" points="249.5,-100 249.5,-132 312.5,-132 312.5,-100 249.5,-100"/>
<text text-anchor="start" x="259.3335" y="-113" font-family="Helvetica,sans-Serif" font-size="10.00" fill="#000000">Comment</text>
<polygon fill="none" stroke="#000000" points="249.5,-44 249.5,-100 312.5,-100 312.5,-44 249.5,-44"/>
<text text-anchor="start" x="277.111" y="-81" font-family="Helvetica,sans-Serif" font-size="10.00" fill="#000000">id</text>
<text text-anchor="start" x="264.603" y="-69" font-family="Helvetica,sans-Serif" font-size="10.00" fill="#000000">content</text>
<text text-anchor="start" x="259.604" y="-57" font-family="Helvetica,sans-Serif" font-size="10.00" fill="#000000">createdAt</text>
<polygon fill="none" stroke="#000000" points="249.5,-24 249.5,-44 312.5,-44 312.5,-24 249.5,-24"/>
</g>
<!-- A2&#45;&gt;A3 -->
<g id="edge3" class="edge">
<title>A2&#45;&gt;A3</title>
<path fill="none" stroke="#000000" d="M208.1686,-78C218.2418,-78 228.8954,-78 238.8394,-78"/>
<polygon fill="none" stroke="#000000" points="208.091,-78.0001 202.091,-82 196.091,-78 202.0911,-74 208.091,-78.0001"/>
<polygon fill="#000000" stroke="#000000" points="248.8911,-78 238.8912,-82.5001 243.8911,-78 238.8911,-78.0001 238.8911,-78.0001 238.8911,-78.0001 243.8911,-78 238.8911,-73.5001 248.8911,-78 248.8911,-78"/>
<text text-anchor="middle" x="230.765" y="-83.4524" font-family="Helvetica,sans-Serif" font-size="10.00" fill="#000000">have 0..*</text>
<text text-anchor="middle" x="214.2172" y="-66.5476" font-family="Helvetica,sans-Serif" font-size="10.00" fill="#000000">1</text>
</g>
<!-- A4 -->
<g id="node5" class="node">
<title>A4</title>
<polygon fill="none" stroke="#000000" points="10,-334 10,-366 69,-366 69,-334 10,-334"/>
<text text-anchor="start" x="25.6075" y="-347" font-family="Helvetica,sans-Serif" font-size="10.00" fill="#000000">Image</text>
<polygon fill="none" stroke="#000000" points="10,-278 10,-334 69,-334 69,-278 10,-278"/>
<text text-anchor="start" x="35.611" y="-315" font-family="Helvetica,sans-Serif" font-size="10.00" fill="#000000">id</text>
<text text-anchor="start" x="33.9465" y="-303" font-family="Helvetica,sans-Serif" font-size="10.00" fill="#000000">url</text>
<text text-anchor="start" x="19.774" y="-291" font-family="Helvetica,sans-Serif" font-size="10.00" fill="#000000">public_id</text>
<polygon fill="none" stroke="#000000" points="10,-258 10,-278 69,-278 69,-258 10,-258"/>
</g>
</g>
</svg>
