<?xml version="1.0" encoding="UTF-8" standalone="no"?>
<!DOCTYPE svg PUBLIC "-//W3C//DTD SVG 1.1//EN"
 "http://www.w3.org/Graphics/SVG/1.1/DTD/svg11.dtd">
<!-- Generated by graphviz version 2.40.1 (20161225.0304)
 -->
<!-- Title: G Pages: 1 -->
<svg width="186pt" height="394pt"
 viewBox="0.00 0.00 186.24 394.00" xmlns="http://www.w3.org/2000/svg" xmlns:xlink="http://www.w3.org/1999/xlink">
<g id="graph0" class="graph" transform="scale(1 1) rotate(0) translate(4 390)">
<title>G</title>
<polygon fill="#ffffff" stroke="transparent" points="-4,4 -4,-390 182.239,-390 182.239,4 -4,4"/>
<!-- A0 -->
<g id="node1" class="node">
<title>A0</title>
<ellipse fill="none" stroke="#000000" cx="89.9545" cy="-375" rx="11" ry="11"/>
</g>
<!-- A1 -->
<g id="node2" class="node">
<title>A1</title>
<path fill="none" stroke="#000000" d="M120.7537,-328C120.7537,-328 59.1553,-328 59.1553,-328 53.1553,-328 47.1553,-322 47.1553,-316 47.1553,-316 47.1553,-304 47.1553,-304 47.1553,-298 53.1553,-292 59.1553,-292 59.1553,-292 120.7537,-292 120.7537,-292 126.7537,-292 132.7537,-298 132.7537,-304 132.7537,-304 132.7537,-316 132.7537,-316 132.7537,-322 126.7537,-328 120.7537,-328"/>
<text text-anchor="middle" x="89.9545" y="-307" font-family="Helvetica,sans-Serif" font-size="10.00" fill="#000000">Manage blog</text>
</g>
<!-- A0&#45;&gt;A1 -->
<g id="edge1" class="edge">
<title>A0&#45;&gt;A1</title>
<path fill="none" stroke="#000000" d="M89.9545,-363.9736C89.9545,-356.9446 89.9545,-347.49 89.9545,-338.4584"/>
<polygon fill="#000000" stroke="#000000" points="89.9545,-328.2209 94.4546,-338.2209 89.9545,-333.2209 89.9546,-338.2209 89.9546,-338.2209 89.9546,-338.2209 89.9545,-333.2209 85.4546,-338.221 89.9545,-328.2209 89.9545,-328.2209"/>
</g>
<!-- A2 -->
<g id="node3" class="node">
<title>A2</title>
<path fill="none" stroke="#000000" d="M117.6341,-256C117.6341,-256 62.2749,-256 62.2749,-256 56.2749,-256 50.2749,-250 50.2749,-244 50.2749,-244 50.2749,-232 50.2749,-232 50.2749,-226 56.2749,-220 62.2749,-220 62.2749,-220 117.6341,-220 117.6341,-220 123.6341,-220 129.6341,-226 129.6341,-232 129.6341,-232 129.6341,-244 129.6341,-244 129.6341,-250 123.6341,-256 117.6341,-256"/>
<text text-anchor="middle" x="89.9545" y="-235" font-family="Helvetica,sans-Serif" font-size="10.00" fill="#000000">Create blog</text>
</g>
<!-- A1&#45;&gt;A2 -->
<g id="edge2" class="edge">
<title>A1&#45;&gt;A2</title>
<path fill="none" stroke="#000000" d="M89.9545,-291.8314C89.9545,-284.131 89.9545,-274.9743 89.9545,-266.4166"/>
<polygon fill="#000000" stroke="#000000" points="89.9545,-256.4133 94.4546,-266.4132 89.9545,-261.4133 89.9546,-266.4133 89.9546,-266.4133 89.9546,-266.4133 89.9545,-261.4133 85.4546,-266.4133 89.9545,-256.4133 89.9545,-256.4133"/>
</g>
<!-- A3 -->
<g id="node4" class="node">
<title>A3</title>
<polygon fill="#d3d3d3" stroke="#000000" stroke-width="4" points="71.9545,-179.5 71.9545,-183.5 107.9545,-183.5 107.9545,-179.5 71.9545,-179.5"/>
<text text-anchor="middle" x="89.5934" y="-181.2" font-family="Helvetica,sans-Serif" font-size="1.00" fill="#000000"> </text>
</g>
<!-- A2&#45;&gt;A3 -->
<g id="edge3" class="edge">
<title>A2&#45;&gt;A3:n</title>
<path fill="none" stroke="#000000" d="M89.9545,-219.8333C89.9545,-212.1338 89.9545,-202.8359 89.9545,-193.6816"/>
<polygon fill="#000000" stroke="#000000" points="89.9545,-183.5 94.4546,-193.5 89.9545,-188.5 89.9546,-193.5 89.9546,-193.5 89.9546,-193.5 89.9545,-188.5 85.4546,-193.5 89.9545,-183.5 89.9545,-183.5"/>
</g>
<!-- A4 -->
<g id="node5" class="node">
<title>A4</title>
<path fill="none" stroke="#000000" d="M69.8636,-143C69.8636,-143 12.0454,-143 12.0454,-143 6.0454,-143 .0454,-137 .0454,-131 .0454,-131 .0454,-119 .0454,-119 .0454,-113 6.0454,-107 12.0454,-107 12.0454,-107 69.8636,-107 69.8636,-107 75.8636,-107 81.8636,-113 81.8636,-119 81.8636,-119 81.8636,-131 81.8636,-131 81.8636,-137 75.8636,-143 69.8636,-143"/>
<text text-anchor="middle" x="40.9545" y="-122" font-family="Helvetica,sans-Serif" font-size="10.00" fill="#000000">Update blog</text>
</g>
<!-- A3&#45;&gt;A4 -->
<g id="edge4" class="edge">
<title>A3&#45;&gt;A4</title>
<path fill="none" stroke="#000000" d="M87.849,-179.0723C83.5328,-174.0954 73.2576,-162.2474 63.4221,-150.9066"/>
<polygon fill="#000000" stroke="#000000" points="56.7619,-143.2269 66.7134,-147.8333 60.0379,-147.0043 63.3138,-150.7816 63.3138,-150.7816 63.3138,-150.7816 60.0379,-147.0043 59.9142,-153.73 56.7619,-143.2269 56.7619,-143.2269"/>
</g>
<!-- A5 -->
<g id="node6" class="node">
<title>A5</title>
<path fill="none" stroke="#000000" d="M166.0247,-143C166.0247,-143 111.8843,-143 111.8843,-143 105.8843,-143 99.8843,-137 99.8843,-131 99.8843,-131 99.8843,-119 99.8843,-119 99.8843,-113 105.8843,-107 111.8843,-107 111.8843,-107 166.0247,-107 166.0247,-107 172.0247,-107 178.0247,-113 178.0247,-119 178.0247,-119 178.0247,-131 178.0247,-131 178.0247,-137 172.0247,-143 166.0247,-143"/>
<text text-anchor="middle" x="138.9545" y="-122" font-family="Helvetica,sans-Serif" font-size="10.00" fill="#000000">Delete blog</text>
</g>
<!-- A3&#45;&gt;A5 -->
<g id="edge5" class="edge">
<title>A3&#45;&gt;A5</title>
<path fill="none" stroke="#000000" d="M92.06,-179.0723C96.3762,-174.0954 106.6514,-162.2474 116.4869,-150.9066"/>
<polygon fill="#000000" stroke="#000000" points="123.1471,-143.2269 119.9948,-153.73 119.8711,-147.0043 116.5952,-150.7816 116.5952,-150.7816 116.5952,-150.7816 119.8711,-147.0043 113.1956,-147.8333 123.1471,-143.2269 123.1471,-143.2269"/>
</g>
<!-- A6 -->
<g id="node7" class="node">
<title>A6</title>
<polygon fill="#d3d3d3" stroke="#000000" stroke-width="4" points="71.9545,-66.5 71.9545,-70.5 107.9545,-70.5 107.9545,-66.5 71.9545,-66.5"/>
<text text-anchor="middle" x="80.5934" y="-68.2" font-family="Helvetica,sans-Serif" font-size="1.00" fill="#000000"> </text>
<polyline fill="none" stroke="#000000" stroke-width="4" points="89.2324,-66.5 89.2324,-70.5 "/>
<text text-anchor="middle" x="98.3713" y="-68.2" font-family="Helvetica,sans-Serif" font-size="1.00" fill="#000000"> </text>
</g>
<!-- A4&#45;&gt;A6 -->
<g id="edge6" class="edge">
<title>A4&#45;&gt;A6:n</title>
<path fill="none" stroke="#000000" d="M63.2935,-106.6365C70.1653,-99.4171 76.6637,-90.4903 79.4834,-80.6354"/>
<polygon fill="#000000" stroke="#000000" points="80.9545,-70.5 83.9714,-81.0427 80.2363,-75.4482 79.5181,-80.3963 79.5181,-80.3963 79.5181,-80.3963 80.2363,-75.4482 75.0647,-79.7499 80.9545,-70.5 80.9545,-70.5"/>
</g>
<!-- A5&#45;&gt;A6 -->
<g id="edge7" class="edge">
<title>A5&#45;&gt;A6:n</title>
<path fill="none" stroke="#000000" d="M116.057,-106.743C109.0134,-99.5425 102.3525,-90.6151 99.4623,-80.7071"/>
<polygon fill="#000000" stroke="#000000" points="97.9545,-70.5 103.8677,-79.735 98.6852,-75.4463 99.416,-80.3926 99.416,-80.3926 99.416,-80.3926 98.6852,-75.4463 94.9643,-81.0503 97.9545,-70.5 97.9545,-70.5"/>
</g>
<!-- A7 -->
<g id="node8" class="node">
<title>A7</title>
<ellipse fill="none" stroke="#000000" cx="89.9545" cy="-15" rx="11" ry="11"/>
<ellipse fill="none" stroke="#000000" cx="89.9545" cy="-15" rx="15" ry="15"/>
</g>
<!-- A6&#45;&gt;A7 -->
<g id="edge8" class="edge">
<title>A6&#45;&gt;A7</title>
<path fill="none" stroke="#000000" d="M89.9545,-66.2012C89.9545,-61.6411 89.9545,-50.9889 89.9545,-40.5748"/>
<polygon fill="#000000" stroke="#000000" points="89.9545,-30.4744 94.4546,-40.4744 89.9545,-35.4744 89.9546,-40.4744 89.9546,-40.4744 89.9546,-40.4744 89.9545,-35.4744 85.4546,-40.4745 89.9545,-30.4744 89.9545,-30.4744"/>
</g>
</g>
</svg>
